<svg viewBox="0 0 32 32" fill="none" xmlns="http://www.w3.org/2000/svg">
  <defs>
    <linearGradient id="gradient" x1="0%" y1="0%" x2="100%" y2="100%">
      <stop offset="0%" style="stop-color:#8B5CF6;stop-opacity:1" />
      <stop offset="100%" style="stop-color:#3B82F6;stop-opacity:1" />
    </linearGradient>
  </defs>
  
  <!-- Background circle -->
  <circle cx="16" cy="16" r="15" fill="url(#gradient)" stroke="white" stroke-width="2"/>
  
  <!-- Brain/AI symbol -->
  <path d="M12 8c-2.2 0-4 1.8-4 4 0 .5.1 1 .3 1.4C7.5 14.2 7 15.1 7 16c0 1.7 1.3 3 3 3h12c1.7 0 3-1.3 3-3 0-.9-.5-1.8-1.3-2.6.2-.4.3-.9.3-1.4 0-2.2-1.8-4-4-4-1.1 0-2.1.4-2.8 1.1C16.6 8.4 15.6 8 14.5 8H12z" fill="white" opacity="0.9"/>
  
  <!-- Code brackets -->
  <path d="M10 20l-2 2 2 2M22 20l2 2-2 2" stroke="white" stroke-width="1.5" stroke-linecap="round" stroke-linejoin="round" opacity="0.8"/>
  
  <!-- Sparkle effects -->
  <circle cx="8" cy="8" r="1" fill="white" opacity="0.6"/>
  <circle cx="24" cy="10" r="1" fill="white" opacity="0.6"/>
  <circle cx="26" cy="24" r="1" fill="white" opacity="0.6"/>
</svg>